<?xml version="1.0" encoding="UTF-8" standalone="no"?>
<svg
   xmlns:dc="http://purl.org/dc/elements/1.1/"
   xmlns:cc="http://creativecommons.org/ns#"
   xmlns:rdf="http://www.w3.org/1999/02/22-rdf-syntax-ns#"
   xmlns:svg="http://www.w3.org/2000/svg"
   xmlns="http://www.w3.org/2000/svg"
   xmlns:sodipodi="http://sodipodi.sourceforge.net/DTD/sodipodi-0.dtd"
   xmlns:inkscape="http://www.inkscape.org/namespaces/inkscape"
   id="svg68"
   version="1.1"
   viewBox="0 0 181.76692 113.54"
   sodipodi:docname="logo1.svg"
   inkscape:version="0.92.3 (2405546, 2018-03-11)"
   width="181.76692"
   height="113.54">
  <sodipodi:namedview
     pagecolor="#ffffff"
     bordercolor="#666666"
     borderopacity="1"
     objecttolerance="10"
     gridtolerance="10"
     guidetolerance="10"
     inkscape:pageopacity="0"
     inkscape:pageshadow="2"
     inkscape:window-width="1920"
     inkscape:window-height="986"
     id="namedview44"
     showgrid="false"
     inkscape:zoom="2.033406"
     inkscape:cx="264.85066"
     inkscape:cy="56.154314"
     inkscape:window-x="-11"
     inkscape:window-y="-11"
     inkscape:window-maximized="1"
     inkscape:current-layer="svg68"
     fit-margin-top="0"
     fit-margin-left="0"
     fit-margin-right="0"
     fit-margin-bottom="0" />
  <metadata
     id="metadata72">
    <rdf:RDF>
      <cc:Work
         rdf:about="">
        <dc:format>image/svg+xml</dc:format>
        <dc:type
           rdf:resource="http://purl.org/dc/dcmitype/StillImage" />
        <dc:title>wids-2color-1line</dc:title>
      </cc:Work>
    </rdf:RDF>
  </metadata>
  <defs
     id="defs4">
    <style
       id="style2">.cls-1{fill:none;}.cls-2,.cls-4{fill:#414042;}.cls-3{fill:#00ae42;}.cls-4{font-size:31px;font-family:FuturaStd-Book, Futura Std;letter-spacing:-0.01em;}</style>
  </defs>
  <title
     id="title6">wids-2color-1line</title>
  <g
     id="Logos"
     transform="translate(-51.54,-51.8)">
    <path
       style="fill:none"
       id="path8"
       d="m 227,90.18 c -4.49,-1.28 -8.13,-0.15 -12,2.17 4.44,0.65 8.21,0.13 12,-2.17 z"
       class="cls-1"
       inkscape:connector-curvature="0" />
    <path
       style="fill:none"
       id="path10"
       d="m 227,90.18 c -4.49,-1.28 -8.13,-0.15 -12,2.17 4.44,0.65 8.21,0.13 12,-2.17 z"
       class="cls-1"
       inkscape:connector-curvature="0" />
    <path
       style="fill:none"
       id="path12"
       d="m 216,88.53 c -4.49,-1.27 -8.13,-0.15 -12,2.17 4.43,0.61 8.2,0.14 12,-2.17 z"
       class="cls-1"
       inkscape:connector-curvature="0" />
    <path
       style="fill:none"
       id="path14"
       d="m 210.44,82.74 -10.44,3.19 3.19,2 z"
       class="cls-1"
       inkscape:connector-curvature="0" />
    <path
       style="fill:none"
       id="path16"
       d="m 227,90.18 c -4.49,-1.28 -8.13,-0.15 -12,2.17 4.44,0.65 8.21,0.13 12,-2.17 z"
       class="cls-1"
       inkscape:connector-curvature="0" />
    <path
       style="fill:none"
       id="path18"
       d="m 201.37,89.76 c -0.78,-0.55 -1.5,-1.06 -2.2,-1.54 0.74,1.21 1.47,2.06 2.2,1.54 z"
       class="cls-1"
       inkscape:connector-curvature="0" />
    <path
       style="fill:none"
       id="path20"
       d="m 178.19,148.58 c 0,-0.07 -14.08,6.21 -20.72,9.22 4.39,1.7 20.42,-7.43 20.72,-9.22 z"
       class="cls-1"
       inkscape:connector-curvature="0" />
    <path
       style="fill:#414042"
       id="path22"
       d="m 65.28,137.5 c 0.22,-0.84 1.29,-3.22 1.37,-3.62 0.14,-0.75 -0.46,-2.9 -1,-3.27 -1.51,-1 -1.22,-2.25 -0.31,-3.22 a 7.94,7.94 0 0 1 0.67,-0.63 c 0.22,-0.19 0.25,-0.32 0,-0.51 a 4.52,4.52 0 0 1 -1.68,-2 1.24,1.24 0 0 1 0.06,-1.25 c 0.51,-0.68 1,-1.34 1.56,-2 a 1.91,1.91 0 0 0 0.41,-0.59 1,1 0 0 0 0,-0.72 6,6 0 0 0 -1.43,-1.69 c -0.67,-0.69 -2.38,-1.75 -2.38,-3.47 0,-2.76 11.42,-9.08 11.68,-11.15 0.82,-6.48 -3.38,-3.06 2.68,-16.63 3.44,-7.73 -1.38,-7.87 3.78,-14.4 4.29,-5.44 29,-18.21 58.22,-16 l 0.79,0.06 A 87,87 0 0 0 127.9,54.7 c -29.25,-2.2 -53.93,10.57 -58.22,16 -5.16,6.53 -0.34,6.67 -3.78,14.4 -6.06,13.57 -1.9,10.15 -2.68,16.63 -0.27,2.06 -11.68,8.39 -11.68,11.15 0,1.71 1.71,2.78 2.38,3.46 a 6.14,6.14 0 0 1 1.36,1.66 1.11,1.11 0 0 1 0,0.72 2.07,2.07 0 0 1 -0.41,0.6 c -0.52,0.67 -1,1.34 -1.56,2 a 1.2,1.2 0 0 0 -0.06,1.24 4.47,4.47 0 0 0 1.68,2 c 0.26,0.19 0.22,0.32 0,0.5 -0.22,0.18 -0.46,0.41 -0.67,0.63 -0.91,1 -1.2,2.23 0.31,3.22 0.57,0.37 1.16,2.52 1,3.27 -0.07,0.4 -1.14,2.78 -1.37,3.62 a 4.12,4.12 0 0 0 0.15,2.07 2.06,2.06 0 0 0 0.48,0.88 c 1.28,1.48 4.6,2.47 10.62,1.57 l 0.29,-0.05 a 2,2 0 0 1 -0.38,-0.75 4,4 0 0 1 -0.08,-2.02 z"
       class="cls-2"
       inkscape:connector-curvature="0" />
    <path
       style="fill:#414042"
       id="path24"
       d="M 87.14,143.19 C 85.2,141.35 80,141.51 76.61,142 a 266.09,266.09 0 0 1 21.83,23.34 h 9.65 A 243.76,243.76 0 0 0 87.14,143.19 Z"
       class="cls-2"
       inkscape:connector-curvature="0" />
    <path
       style="fill:#00ae42"
       id="path26"
       d="m 203.74,102.34 c 2.27,-2.22 4.55,-4.43 6.81,-6.66 a 2.61,2.61 0 0 1 2.58,-0.68 39.47,39.47 0 0 0 7.5,0.67 c 3.46,-0.09 6.32,-1.83 8.83,-4.2 2.8,2.18 3.07,4.89 3.25,8.64 1.31,-2.47 0.2,-8.27 -0.81,-9.91 a 2.38,2.38 0 0 1 -0.13,-2.38 7.73,7.73 0 0 0 -0.9,-7.59 c 0.26,2.31 0.37,4.59 -0.85,6.72 a 38.56,38.56 0 0 0 -4.07,-3.2 19.09,19.09 0 0 0 -4.84,-2.1 16.14,16.14 0 0 0 -5.09,-0.48 26.47,26.47 0 0 0 -4.47,1 71.1,71.1 0 0 0 6.22,-4.1 c 6.24,-5 9,-11.5 7.54,-19.5 a 9.42,9.42 0 0 0 -4.83,-6.77 c 2.53,2.65 2.55,5.61 1,8.66 a 22.42,22.42 0 0 1 -10.83,10.42 43.1,43.1 0 0 1 -23.43,3.5 9.49,9.49 0 0 1 -4.73,-2 84,84 0 0 0 -42.79,-16 l -0.79,-0.06 C 109.66,54.13 85,66.9 80.69,72.34 c -5.16,6.53 -0.34,6.67 -3.78,14.4 -6.06,13.57 -1.86,10.15 -2.68,16.63 -0.26,2.07 -11.68,8.39 -11.68,11.15 0,1.72 1.71,2.78 2.38,3.47 a 6,6 0 0 1 1.36,1.69 1,1 0 0 1 0,0.72 1.91,1.91 0 0 1 -0.41,0.59 c -0.52,0.68 -1,1.34 -1.56,2 a 1.24,1.24 0 0 0 -0.06,1.25 4.52,4.52 0 0 0 1.68,2 c 0.26,0.19 0.23,0.32 0,0.51 a 7.94,7.94 0 0 0 -0.67,0.63 c -0.91,1 -1.2,2.23 0.31,3.22 0.57,0.37 1.17,2.52 1,3.27 -0.08,0.4 -1.15,2.78 -1.37,3.62 a 4,4 0 0 0 0.14,2.07 2,2 0 0 0 0.38,0.75 0.64,0.64 0 0 0 0.1,0.13 c 1.28,1.47 4.6,2.46 10.62,1.56 h 0.09 c 3.34,-0.49 8.59,-0.65 10.53,1.19 a 243.76,243.76 0 0 1 21,22.15 h 43.52 l -28,-26.71 27.12,21.14 c 0,0 3.41,2.81 12.45,1.3 8,-1.33 14.4,-6 20.17,-11.53 0.44,-0.42 1.07,-1.08 1.51,-1 a 23.39,23.39 0 0 1 5.25,1.34 c 1.95,0.84 2.18,2.64 1.46,4.84 3.14,-3.36 2.4,-6 -2.81,-10.9 1.82,-1.3 3.37,-3 5.41,-3.77 a 6.57,6.57 0 0 1 5.78,0.62 3.85,3.85 0 0 0 -3.48,-3.31 8.14,8.14 0 0 0 -5.61,0.92 c -1.78,1.1 -3.43,2.4 -5.15,3.59 a 3,3 0 0 1 -1.37,0.69 c -2.34,0.11 -4.68,0.12 -7.51,0.18 2.75,-1.17 5.07,-2.26 7.47,-3.15 7.35,-2.74 14.87,-4.73 22.81,-3.92 a 18.67,18.67 0 0 1 5.78,1.76 c 1.95,0.9 2.54,2.85 2.52,4.89 0,1.77 -1.2,2.71 -2.84,3.2 a 4.41,4.41 0 0 0 4.75,-2.31 c 2.14,-3.61 0.56,-6.57 -2.06,-9.3 0.71,-0.17 1.23,-0.27 1.73,-0.42 4.09,-1.21 7.25,-3.52 8.77,-7.62 a 6.52,6.52 0 0 0 -1.6,-7.5 c 1.22,3.49 0.14,6.15 -3,7.66 -4,1.94 -11.57,0.68 -14.87,-2.56 5.28,-3.17 8.79,-7.93 12,-13 a 15.28,15.28 0 0 1 3.37,-3.63 c 1.92,-1.57 4.19,-2.32 6.6,-1.19 2.41,1.13 2.59,3.2 2.39,5.56 a 5.7,5.7 0 0 0 1,-4.64 10.44,10.44 0 0 0 -14.57,-7.71 33.11,33.11 0 0 0 -7.07,4.42 52.41,52.41 0 0 1 -16.26,8.68 9.91,9.91 0 0 1 -7.58,-0.36 61.06,61.06 0 0 0 6,-1.57 32.37,32.37 0 0 0 11.59,-7.69 z M 227,90.14 c -3.82,2.3 -7.59,2.77 -12,2.17 3.9,-2.31 7.54,-3.45 12,-2.17 z m -16.56,-7.44 -7.25,5.23 -3.19,-2 z m -9.07,7 c -0.73,0.52 -1.46,-0.33 -2.2,-1.54 0.7,0.5 1.42,1.01 2.2,1.56 z m -23.18,58.82 c -0.3,1.79 -16.33,10.92 -20.72,9.22 6.64,-2.99 20.73,-9.27 20.72,-9.2 z"
       class="cls-3"
       inkscape:connector-curvature="0" />
  </g>
</svg>
